<?xml version="1.0" encoding="utf-8"?>
<!-- Generator: Adobe Illustrator 16.0.3, SVG Export Plug-In . SVG Version: 6.00 Build 0)  -->
<!DOCTYPE svg PUBLIC "-//W3C//DTD SVG 1.1//EN" "http://www.w3.org/Graphics/SVG/1.1/DTD/svg11.dtd">
<svg version="1.1" id="Layer_1" xmlns="http://www.w3.org/2000/svg" xmlns:xlink="http://www.w3.org/1999/xlink" x="0px" y="0px"
	 width="623px" height="621px" viewBox="-4.5 85.5 623 621" enable-background="new -4.5 85.5 623 621" xml:space="preserve">
<g>
	<g>
		<g>
			<path d="M0,396c0,168.996,137.004,306,306,306c168.996,0,306-137.004,306-306S474.996,90,306,90C137.004,90,0,227.004,0,396z
				 M561,396c0,140.829-114.171,255-255,255S51,536.829,51,396s114.17-255,255-255S561,255.171,561,396z"/>
			<path d="M160.468,428.97c-9.958,9.958-9.958,26.104,0,36.063s26.104,9.958,36.063,0L306,355.563l109.469,109.47
				c9.958,9.958,26.104,9.958,36.063,0c9.959-9.958,9.959-26.104,0-36.063l-127.5-127.501c-9.958-9.958-26.104-9.958-36.063,0
				L160.468,428.97z"/>
		</g>
	</g>
</g>
</svg>
